
<svg xmlns="http://www.w3.org/2000/svg" version="1.1" x="0" y="0" width="216" height="216" viewBox="0 0 216 216" xml:space="preserve"><path fill="rgba(0,0,0,0.12)" d="M115.7 29.3c-4.2 0-7.7 3.4-7.7 7.6 0 4.2 3.5 7.6 7.7 7.6s7.7-3.4 7.7-7.6C123.4 32.7 119.9 29.3 115.7 29.3zM115.7 41.2c-2.4 0-4.3-1.9-4.3-4.3s1.9-4.3 4.3-4.3c2.4 0 4.3 1.9 4.3 4.3S118.1 41.2 115.7 41.2z"/><path fill="rgba(0,0,0,0.12)" d="M46.5 22.9l-1.8-3.7c-0.7-1.4-2.5-2.4-4-2.3l-8.1 0.6c-1.5 0.1-3.2 1.4-3.7 2.9l-1.6 4.9c-0.5 1.5 0.4 2.5 1.9 2.3L45 25.8C46.5 25.6 47.2 24.3 46.5 22.9zM160.7 94.2L155 90c-1-0.7-2.6-0.7-3.7 0l-5.8 4.2c-1 0.7-1.5 2.3-1.1 3.5l2.2 6.8c0.4 1.2 1.7 2.1 3 2.1h7.1c1.2 0 2.6-1 3-2.1l2.2-6.8C162.3 96.5 161.8 95 160.7 94.2zM194.1 21.1c-0.5-0.8-1.6-1.4-2.5-1.4h-5.8c-0.9 0-2 0.6-2.5 1.4l-2.9 5c-0.5 0.8-0.5 2.1 0 2.9l2.9 5c0.5 0.8 1.6 1.4 2.5 1.4h5.8c0.9 0 2-0.6 2.5-1.4l2.9-5c0.5-0.8 0.5-2.1 0-2.9L194.1 21.1zM64.6 81.3c-1.1-0.2-2.1-0.4-2.9-0.5 -0.7-0.1-1.6-0.8-1.9-1.4l-1.4-2.6c-1.1-2.1-2.9-2.1-4 0 -0.5 1-1 1.9-1.4 2.6 -0.3 0.7-1.2 1.3-1.9 1.4l-2.9 0.5c-2.3 0.4-2.9 2.1-1.2 3.8 0.8 0.8 1.5 1.6 2.1 2.1 0.5 0.5 0.8 1.5 0.7 2.3l-0.4 2.9c-0.3 2.3 1.1 3.4 3.2 2.3 1-0.5 2-1 2.6-1.3 0.7-0.3 1.7-0.3 2.4 0l2.6 1.3c2.1 1 3.6 0 3.2-2.3 -0.2-1.1-0.3-2.2-0.4-2.9s0.2-1.7 0.7-2.3l2.1-2.1C67.4 83.4 66.9 81.7 64.6 81.3zM102.5 163.4l-3.5-1.9c-0.8-0.4-1-1.4-0.5-2.2 0.7-1 1.7-2.5 2.8-4.2 2-3.1 0.3-3.9-3.9-1.8l-9.5 4.7c-1.4 0.7-1.5 1.9-0.1 2.7l3.5 1.9c0.8 0.4 1 1.4 0.5 2.2 -0.7 1-1.7 2.5-2.8 4.2 -2 3.1-0.3 3.9 3.9 1.8l9.5-4.7C103.8 165.4 103.9 164.2 102.5 163.4zM209.7 137.8l-0.5 3.5c-0.1 1-0.7 1.1-1.3 0.4l-3.9-4.8c-1.5-1.8-3.3-1.5-4 0.8l-1.9 5.7c-0.3 0.9 0.1 1.9 0.8 2.2 0.8 0.3 1.6-0.2 1.9-1.1l1.1-3.1c0.3-0.9 1-1 1.6-0.3l4.9 6.1c1.4 1.7 2.8 1.3 3.1-1l0.6-4.3c0.1-1 0.7-1.2 1.4-0.5l2.5 2.6v-4.4l-2.8-3C211.6 134.9 210 135.4 209.7 137.8zM4.4 143.6l0.8-5.2c0.1-0.9 0.8-1.1 1.4-0.4l4.8 5.6c0.6 0.7 1.6 0.8 2.2 0.2 0.6-0.6 0.6-1.6 0-2.3L6.3 133c-1.5-1.8-3.1-1.3-3.4 1.1l-0.8 5.6c-0.1 0.9-0.8 1.2-1.4 0.5L0 139.5v4.4l0.9 0.9C2.5 146.5 4.1 145.9 4.4 143.6zM30 184.3c-1-1.8-2.6-1.8-3.6 0l-4.9 8.8c-1 1.8-0.1 3.4 1.9 3.5l10.2 0.8c2.1 0.2 2.9-1.2 1.9-3L30 184.3zM174 182.9c-0.6-0.7-1.7-0.7-2.4-0.1l-3 2.8c-0.2 0.2-0.4 0.1-0.6 0l-1.5-1.8c-0.6-0.7-1.6-0.8-2.3-0.2l-0.3 0.3c-0.7 0.6-0.8 1.6-0.2 2.3l1.6 2c0.1 0.2 0.1 0.4 0 0.6l-2.9 2.6c-0.7 0.6-0.7 1.7-0.1 2.4l0.3 0.3c0.6 0.7 1.7 0.7 2.4 0.1l2.7-2.5c0.2-0.2 0.4-0.1 0.6 0l2.2 2.6c0.6 0.7 1.6 0.8 2.3 0.2l0.3-0.3c0.7-0.6 0.8-1.6 0.2-2.3l-2.3-2.8c-0.1-0.2-0.1-0.4 0-0.6l3.2-2.9c0.7-0.6 0.7-1.7 0.1-2.4L174 182.9z"/></svg>