<svg xmlns="http://www.w3.org/2000/svg" version="1.1" x="0" y="0" width="45" height="45" viewBox="0 0 45 45" xml:space="preserve"><path d="M34.6 9.8c-1.3-1.5-3.6-1.6-5.1-0.2l-6.6 6c-0.4 0.3-0.9 0.3-1.2-0.1l-3.3-4c-1.3-1.5-3.5-1.7-5.1-0.5l-0.7 0.6c-1.5 1.3-1.7 3.5-0.5 5.1l3.6 4.3c0.3 0.4 0.3 1-0.1 1.3L9.4 28c-1.5 1.3-1.6 3.6-0.2 5.1l0.6 0.7c1.3 1.5 3.6 1.6 5.1 0.2l5.9-5.4c0.4-0.3 0.9-0.3 1.2 0.1l4.8 5.7c1.3 1.5 3.5 1.7 5.1 0.5l0.7-0.6c1.5-1.3 1.7-3.5 0.5-5.1l-5-6c-0.3-0.4-0.3-1 0.1-1.3l6.9-6.3c1.5-1.3 1.6-3.6 0.2-5.1L34.6 9.8z"/></svg>