<svg xmlns="http://www.w3.org/2000/svg" version="1.1" x="0" y="0" width="45" height="45" viewBox="0 0 45 45" xml:space="preserve"><path d="M29.7 10.3c0.7 1.4 2.5 2.7 4.1 3 1.6 0.3 3.7 0.6 6.1 1.1 4.9 0.8 6.1 4.4 2.6 8l-4.3 4.4c-1.1 1.1-1.8 3.3-1.6 4.8 0.2 1.6 0.5 3.8 0.9 6.1 0.7 4.9-2.3 7.1-6.8 4.9l-5.6-2.7c-1.4-0.7-3.6-0.7-5 0 -1.4 0.7-3.4 1.7-5.6 2.7 -4.5 2.2-7.5 0-6.8-4.9l0.9-6.1C8.8 30 8.1 27.9 7 26.8c-1.1-1.2-2.7-2.7-4.3-4.4 -3.5-3.6-2.3-7.1 2.6-8l6.1-1.1c1.5-0.3 3.3-1.6 4.1-3 0.8-1.4 1.8-3.4 2.9-5.5 2.3-4.4 6.1-4.4 8.4 0L29.7 10.3z"/></svg>